<svg width="64" height="64" viewBox="0 0 64 64" fill="none" xmlns="http://www.w3.org/2000/svg">
  <rect width="64" height="64" rx="16" fill="#ECFDF3"/>
  <circle cx="32" cy="32" r="22" fill="#16A34A"/>
  <path d="M24 28c0-3.866 3.582-7 8-7s8 3.134 8 7c0 4.5-8 12-8 12s-8-7.5-8-12Z" fill="#BBF7D0"/>
  <path d="M28 26.5c0-2.485 1.79-4.5 4-4.5s4 2.015 4 4.5c0 2.9-4 7.5-4 7.5s-4-4.6-4-7.5Z" fill="#F8F8F8"/>
  <circle cx="28.5" cy="26" r="1.5" fill="#0F172A"/>
  <circle cx="35.5" cy="26" r="1.5" fill="#0F172A"/>
  <path d="M30.5 31c.8 1 2.2 1 3 0" stroke="#0F172A" stroke-width="1.5" stroke-linecap="round"/>
  <path d="M20 41c3 2.5 7.5 4 12 4s9-1.5 12-4" stroke="#0F172A" stroke-width="2" stroke-linecap="round"/>
</svg>
